<!-- 
  Copyright (c) 2012 Adobe Systems Incorporated. All rights reserved.
   
  Permission is hereby granted, free of charge, to any person obtaining a
  copy of this software and associated documentation files (the "Software"), 
  to deal in the Software without restriction, including without limitation 
  the rights to use, copy, modify, merge, publish, distribute, sublicense, 
  and/or sell copies of the Software, and to permit persons to whom the 
  Software is furnished to do so, subject to the following conditions:
   
  The above copyright notice and this permission notice shall be included in
  all copies or substantial portions of the Software.
   
  THE SOFTWARE IS PROVIDED "AS IS", WITHOUT WARRANTY OF ANY KIND, EXPRESS OR
  IMPLIED, INCLUDING BUT NOT LIMITED TO THE WARRANTIES OF MERCHANTABILITY, 
  FITNESS FOR A PARTICULAR PURPOSE AND NONINFRINGEMENT. IN NO EVENT SHALL THE
  AUTHORS OR COPYRIGHT HOLDERS BE LIABLE FOR ANY CLAIM, DAMAGES OR OTHER 
  LIABILITY, WHETHER IN AN ACTION OF CONTRACT, TORT OR OTHERWISE, ARISING 
  FROM, OUT OF OR IN CONNECTION WITH THE SOFTWARE OR THE USE OR OTHER 
  DEALINGS IN THE SOFTWARE.
-->
<svg viewBox="0 0 160 192" height="120" width="100"
	xmlns="http://www.w3.org/2000/svg"
	xmlns:xlink="http://www.w3.org/1999/xlink" version="1.1">
	<defs>
		<path id="logo" d="M10.982,24.057l0.537,0.27L13.6,23.25v-1.476L2.926,
		16.336l-2.148,0.939v6.58l10.675,5.236L13.6,27.95V26.81l-2.618-1.611V
		24.057zM29.143,15.904l2.08-1.074v-1.477l-5.833-2.973v8.482l3.685,1.809l
		2.148-1.142v-1.142l-2.618-1.611v-1.142L29.143,15.904zM4,8.078v5.976l
		1.522,1.008v1.948l8.657,4.41v2.183l-1.15,0.595l1.377,0.732l10.406-5.103V
		8.078l-10.34-5.17L4,8.078zM20.571,13.709l2.416-1.111v2.186l-2.416,1.073V
		13.709zM15.883,16l2.417-1.111v2.187l-2.417,1.074V16z"/>
		<path id="ios" d="M4.065,21.797h2.236v-8.784H4.065V21.797zM5.184,9.352c
		-0.739,0-1.245,0.523-1.245,1.208c0,0.667,0.487,1.19,1.227,1.19c0.775,0,
		1.263-0.523,1.263-1.19C6.41,9.875,5.941,9.352,5.184,9.352zM13.915,9.442c
		-3.427,0-5.771,2.633-5.771,6.367c0,3.571,2.164,6.186,5.591,6.186c3.355,0
		,5.826-2.326,5.826-6.402C19.56,12.13,17.468,9.442,13.915,9.442zM13.86,
		20.21c-2.128,0-3.373-1.966-3.373-4.437c0-2.507,1.172-4.545,3.373-4.545c
		2.218,0,3.354,2.164,3.354,4.455C17.215,18.226,16.007,20.21,13.86,20.21zM
		25.696,14.727c-1.623-0.631-2.327-1.064-2.327-2.002c0-0.703,0.613-1.461,
		2.021-1.461c1.137,0,1.984,0.343,2.417,0.577l0.541-1.785c-0.632-0.325
		-1.605-0.613-2.922-0.613c-2.633,0-4.293,1.515-4.293,3.499c0,1.75,1.281,
		2.813,3.283,3.535c1.551,0.559,2.164,1.1,2.164,2.02c0,0.992-0.794,1.659
		-2.219,1.659c-1.136,0-2.218-0.36-2.939-0.775l-0.487,1.84c0.668,0.396,
		2.002,0.758,3.283,0.758c3.138,0,4.617-1.695,4.617-3.644C28.835,16.585,
		27.807,15.521,25.696,14.727z"/>
		<path id="android" d="M6.13,11.126c-0.894,0-1.624,0.731-1.624,1.624v
		6.496c0,0.895,0.73,1.624,1.624,1.624c0.893,0,1.624-0.729,1.624-1.624V
		12.75C7.754,11.856,7.023,11.126,6.13,11.126zM19.516,4.96l1.32-2.035c
		0.074-0.113,0.042-0.264-0.07-0.338c-0.113-0.074-0.266-0.041-0.34,0.072l
		-1.367,2.106c-0.93-0.36-1.966-0.561-3.059-0.561c-1.094,0-2.13,0.201
		-3.058,0.561l-1.368-2.106c-0.073-0.113-0.225-0.145-0.338-0.072c-0.113,
		0.074-0.145,0.225-0.072,0.338l1.321,2.035c-2.186,1.009-3.674,2.928-3.717
		,5.138h14.464C23.189,7.888,21.702,5.969,19.516,4.96zM12.898,8.062c-0.459
		,0-0.832-0.373-0.832-0.832s0.373-0.832,0.832-0.832c0.46,0,0.832,0.373,
		0.832,0.832S13.358,8.062,12.898,8.062zM19.102,8.062c-0.459,0-0.832-0.373
		-0.832-0.832s0.373-0.832,0.832-0.832s0.832,0.373,0.832,0.832S19.561,
		8.062,19.102,8.062zM25.87,11.126c-0.894,0-1.624,0.731-1.624,1.624v6.496c
		0,0.895,0.73,1.624,1.624,1.624s1.624-0.729,1.624-1.624V12.75C27.494,
		11.856,26.764,11.126,25.87,11.126zM8.756,22.905c0,0.722,0.591,1.313,
		1.314,1.313h1.363v3.61c0,0.894,0.731,1.624,1.625,1.624c0.893,0,1.624
		-0.73,1.624-1.624v-3.611h2.636v3.61c0,0.895,0.73,1.624,1.625,1.624c0.894
		,0,1.623-0.729,1.623-1.624v-3.61h1.363c0.723,0,1.314-0.591,1.314-1.313V
		11.07H8.756V22.905z"/>
		<path id="winphone" d="M20.023,17.484c-1.732-0.205-3.022-0.908-4.212-1.701l0,
		0l-0.559,0.279l-2.578,8.924l0,0c1.217,0.805,2.905,1.707,4.682,1.914c
		2.688,0.312,5.562-0.744,6.396-1.195l2.611-9.061l-0.559-0.279C25.805,
		16.365,23.193,17.857,20.023,17.484zM14.424,14.825c-1.267-0.87-2.578
		-1.652-4.375-1.816c-0.318-0.029-0.627-0.042-0.925-0.042c-3.011,0-4.948,
		1.347-4.948,1.347l-2.565,8.877l0,0l0.526,0.281c0.981-0.479,2.78-1.146,
		5.09-0.984c1.665,0.113,2.92,0.781,4.117,1.531l0.507-0.271l0,0L14.424,
		14.825zM10.201,12.094c1.664,0.114,2.921,0.78,4.117,1.533l0.509-0.26l0,0L
		17.4,4.431c-1.271-0.87-2.583-1.653-4.377-1.816c-0.318-0.029-0.626-0.042
		-0.924-0.042C9.088,2.573,7.15,3.92,7.15,3.92l-2.566,8.878L5.11,13.08C
		6.092,12.604,7.891,11.936,10.201,12.094zM28.779,5.971L28.779,5.971c0,
		0.001-2.609,1.492-5.779,1.119c-1.734-0.204-3.023-0.907-4.213-1.701L
		18.227,5.67l-2.576,8.923l0,0c1.215,0.803,2.906,1.709,4.68,1.915c2.687,
		0.312,5.558-0.745,6.392-1.197l2.615-9.059L28.779,5.971z"/>
		<path id="blackberry" d="M11.347,8.574c0-2.291-2.934-2.211-2.934-2.211l-3.869
		-0.01l-1.099,5.071l4.509-0.012C8.996,11.413,11.347,10.864,11.347,8.574zM
		18.096,6.363l-3.868-0.01l-1.099,5.071l4.508-0.012c1.043,0,3.393-0.549,
		3.393-2.839C21.029,6.283,18.096,6.363,18.096,6.363zM7.122,13.474l-3.869
		-0.009l-1.099,5.071l4.509-0.012c1.042,0,3.393-0.549,3.393-2.84C10.056,
		13.395,7.122,13.474,7.122,13.474zM16.805,13.474l-3.868-0.009l-1.099,
		5.071l4.508-0.012c1.042,0,3.392-0.549,3.392-2.84C19.738,13.395,16.805,
		13.474,16.805,13.474zM26.912,10.587l-3.869-0.009l-1.1,5.07l4.51-0.011c
		1.041,0,3.393-0.549,3.393-2.84C29.846,10.508,26.912,10.587,26.912,10.587
		zM25.621,17.698l-3.869-0.01l-1.1,5.071l4.51-0.012c1.041,0,3.393-0.549,
		3.393-2.839C28.555,17.618,25.621,17.698,25.621,17.698zM15.514,20.585l
		-3.869-0.01l-1.099,5.071l4.508-0.012c1.042,0,3.392-0.549,3.392-2.839C
		18.447,20.505,15.514,20.585,15.514,20.585z"/>
		<path id="webos" d="M29.936,14.968c-0.178-2.385-0.967-4.726-2.301-6.714c
		-1.307-1.954-3.107-3.585-5.203-4.657c-1.617-0.853-3.414-1.353-5.232
		-1.514c-0.412-0.087-0.824,0.006-1.238,0.009c-0.981,2.81-2,5.606-2.989,
		8.413c0.72,0.013,1.439-0.011,2.158,0.011c0.525,0.021,1.076,0.241,1.366,
		0.701c0.333,0.519,0.314,1.185,0.105,1.748c-0.977,2.751-1.965,5.5-2.941,
		8.253c-0.863,0.012-1.727-0.001-2.59,0.007c-0.121-0.002-0.245,0.012-0.36
		-0.034c1.096-3.024,2.167-6.059,3.249-9.089c-0.516-0.008-1.031,0.003
		-1.546-0.006c-0.08,0.165-0.136,0.339-0.195,0.513c-0.994,2.795-1.997,5.59
		-2.987,8.385c-0.047,0.072-0.035,0.229-0.147,0.229c-0.822,0.003-1.645
		-0.003-2.467,0.002c-0.148-0.002-0.299,0.015-0.443-0.029c2.255-6.257,4.46
		-12.533,6.716-18.79c-4.407,0.943-8.2,4.242-9.838,8.431c-0.672,1.659
		-0.965,3.45-1.002,5.233c0.046,0.856,0.106,1.715,0.273,2.559c0.53,2.809,
		1.964,5.437,4.028,7.412c1.714,1.657,3.864,2.855,6.171,3.454c2.247-6.281,
		4.479-12.566,6.717-18.851c0.021-0.045,0.066-0.137,0.09-0.183c1.381,0.014
		,2.764,0.002,4.145,0.006c0.453,0.008,0.918-0.042,1.359,0.095c0.506,0.137
		,0.979,0.502,1.135,1.018c0.115,0.407,0.035,0.841-0.109,1.229c-0.883,
		2.574-1.816,5.131-2.727,7.693c-0.225,0.668-0.904,1.087-1.592,1.11c-1.076
		,0.021-2.154-0.007-3.23,0.013c-0.988,2.756-1.967,5.515-2.948,8.273c0.256
		,0.108,0.528,0.023,0.794,0.041c0.404,0.03,0.802-0.043,1.203-0.071c2.625
		-0.241,5.17-1.259,7.242-2.884c1.664-1.298,3.031-2.978,3.953-4.875c0.811
		-1.634,1.266-3.432,1.395-5.245C29.889,16.234,29.906,15.599,29.936,14.968
		zM20.422,20.031c0.916-2.659,1.889-5.297,2.818-7.951c-0.398-0.008-0.799,
		0.002-1.197-0.005c-0.115,0.017-0.268-0.042-0.354,0.055c-0.943,2.636-1.88
		,5.276-2.822,7.912C19.385,20.045,19.906,20.067,20.422,20.031z"/>
		<path id="symbian" d="M15.943,7.966c1.357,0,2.49-1.132,2.49-2.376c0
		-1.358-1.019-2.49-2.377-2.49c-1.358,0-2.489,1.132-2.489,2.49C13.567,6.83
		,14.699,7.966,15.943,7.966zM15.943,10.116c-1.357,0-2.603,4.187-2.603,
		9.393c0,5.205,1.245,9.392,2.603,9.392c1.472,0,2.716-4.187,2.716-9.392C
		18.659,14.303,17.415,10.116,15.943,10.116z"/>
		<g id="iconset">
			<use xlink:href="#ios" x="32"/>
			<use xlink:href="#android" x="32" y="32"/>
			<use xlink:href="#winphone" x="32" y="64"/>
			<use xlink:href="#blackberry" x="32" y="96"/>
			<use xlink:href="#webos" x="32" y="128"/>
			<use xlink:href="#symbian" x="32" y="160"/>
		</g>
	</defs>
	<use xlink:href="#logo" fill="#999"/>
	<use xlink:href="#logo" fill="#c00" y="32"/>
	<use xlink:href="#logo" fill="#ccc" y="64"/>
	
	<use xlink:href="#iconset" fill="#0c9db7"/>
	<use xlink:href="#iconset" fill="#000" x="32"/>
	<use xlink:href="#iconset" fill="#c00" x="64"/>
	<use xlink:href="#iconset" fill="#ccc" x="96"/>
</svg>