<?xml version="1.0" encoding="utf-8"?>
<!-- Generator: Adobe Illustrator 17.0.0, SVG Export Plug-In . SVG Version: 6.00 Build 0)  -->
<!DOCTYPE svg PUBLIC "-//W3C//DTD SVG 1.1 Basic//EN" "http://www.w3.org/Graphics/SVG/1.1/DTD/svg11-basic.dtd">
<svg version="1.1" baseProfile="basic" id="Layer_1"
	 xmlns="http://www.w3.org/2000/svg" xmlns:xlink="http://www.w3.org/1999/xlink" x="0px" y="0px" width="20px" height="20px"
	 viewBox="0 0 20 20" xml:space="preserve">
<g>
	<path id="logo_2_" fill="#CCCCCC" d="M7.349,15.218l0.336,0.169l1.301-0.673v-0.922l-6.671-3.399l-1.343,0.587v4.113l6.672,3.272
		l1.342-0.713v-0.713l-1.636-1.007V15.218z M18.7,10.123L20,9.451V8.528L16.354,6.67v5.301l2.303,1.131L20,12.388v-0.714
		l-1.636-1.007V9.954L18.7,10.123z M2.986,5.231v3.735l0.951,0.63v1.217l5.411,2.756v1.364l-0.719,0.372l0.861,0.458l6.504-3.189
		V5.231L9.531,2L2.986,5.231z M13.342,8.751l1.51-0.694v1.366l-1.51,0.671V8.751z M10.413,10.182l1.511-0.694v1.367l-1.511,0.671
		C10.413,11.526,10.413,10.182,10.413,10.182z"/>
</g>
</svg>
